{
  "source": "C:\\Users\\Peter\\Desktop\\stuff\\MIUN\\quantitative_research\\video_compression\\videos\\BVI-HD\\BVI-HD_CDVL_videos\\ORIG\\BridgeRiver_1920x1080_30fps.mp4",
  "output": "C:\\Users\\Peter\\Desktop\\stuff\\MIUN\\quantitative_research\\video_compression\\compressed_videos\\BVI-HD\\h264\\1\\BridgeRiver_1920x1080_30fps_h264.mp4",
  "codec": "h264",
  "ok": "Input #0, mov,mp4,m4a,3gp,3g2,mj2, from 'C:\\Users\\Peter\\Desktop\\stuff\\MIUN\\quantitative_research\\video_compression\\videos\\BVI-HD\\BVI-HD_CDVL_videos\\ORIG\\BridgeRiver_1920x1080_30fps.mp4':\n  Metadata:\n    major_brand     : isom\n    minor_version   : 512\n    compatible_brands: isomiso2avc1mp41\n    encoder         : Lavf54.28.101\n  Duration: 00:00:05.00, start: 0.000000, bitrate: 274913 kb/s\n  Stream #0:0[0x1](und): Video: h264 (High 4:4:4 Predictive) (avc1 / 0x31637661), yuv420p(progressive), 1920x1080, 274910 kb/s, 30 fps, 30 tbr, 30 tbn (default)\n    Metadata:\n      handler_name    : VideoHandler\n      vendor_id       : [0][0][0][0]\n[out#0/mp4 @ 0000025cf0f19a40] Codec AVOption b:a (set bitrate (in bits/s)) has not been used for any stream. The most likely reason is either wrong type (e.g. a video option with no video streams) or that it is a private option of some decoder which was not actually used for any stream.\nStream mapping:\n  Stream #0:0 -> #0:0 (h264 (native) -> h264 (libx264))\nPress [q] to stop, [?] for help\n[libx264 @ 0000025cf32a75c0] using cpu capabilities: MMX2 SSE2Fast SSSE3 SSE4.2 AVX FMA3 BMI2 AVX2\n[libx264 @ 0000025cf32a75c0] profile High, level 5.0, 4:2:0, 8-bit\n[libx264 @ 0000025cf32a75c0] 264 - core 165 r3222 b35605a - H.264/MPEG-4 AVC codec - Copyleft 2003-2025 - http://www.videolan.org/x264.html - options: cabac=1 ref=5 deblock=1:0:0 analyse=0x3:0x113 me=hex subme=8 psy=1 psy_rd=1.00:0.00 mixed_ref=1 me_range=16 chroma_me=1 trellis=2 8x8dct=1 cqm=0 deadzone=21,11 fast_pskip=1 chroma_qp_offset=-2 threads=18 lookahead_threads=3 sliced_threads=0 nr=0 decimate=1 interlaced=0 bluray_compat=0 constrained_intra=0 bframes=3 b_pyramid=2 b_adapt=1 b_bias=0 direct=3 weightb=1 open_gop=0 weightp=2 keyint=250 keyint_min=25 scenecut=40 intra_refresh=0 rc_lookahead=50 rc=cbr mbtree=1 bitrate=1000 ratetol=1.0 qcomp=0.60 qpmin=0 qpmax=69 qpstep=4 vbv_maxrate=1000 vbv_bufsize=1000 nal_hrd=none filler=0 ip_ratio=1.40 aq=1:1.00\nOutput #0, mp4, to 'C:\\Users\\Peter\\Desktop\\stuff\\MIUN\\quantitative_research\\video_compression\\compressed_videos\\BVI-HD\\h264\\1\\BridgeRiver_1920x1080_30fps_h264.mp4':\n  Metadata:\n    major_brand     : isom\n    minor_version   : 512\n    compatible_brands: isomiso2avc1mp41\n    encoder         : Lavf62.3.100\n  Stream #0:0(und): Video: h264 (avc1 / 0x31637661), yuv420p(tv, progressive), 1920x1080, q=2-31, 1000 kb/s, 30 fps, 15360 tbn (default)\n    Metadata:\n      encoder         : Lavc62.11.100 libx264\n      handler_name    : VideoHandler\n      vendor_id       : [0][0][0][0]\n    Side data:\n      cpb: bitrate max/min/avg: 1000000/0/1000000 buffer size: 1000000 vbv_delay: N/A\nframe=    0 fps=0.0 q=0.0 size=       0KiB time=N/A bitrate=N/A speed=N/A elapsed=0:00:00.50    \nframe=    0 fps=0.0 q=0.0 size=       0KiB time=N/A bitrate=N/A speed=N/A elapsed=0:00:01.03    \nframe=    0 fps=0.0 q=0.0 size=       0KiB time=N/A bitrate=N/A speed=N/A elapsed=0:00:01.66    \nframe=    0 fps=0.0 q=0.0 size=       0KiB time=N/A bitrate=N/A speed=N/A elapsed=0:00:02.25    \nframe=   28 fps=9.8 q=47.0 size=       0KiB time=00:00:00.73 bitrate=   0.5kbits/s speed=0.256x elapsed=0:00:02.86    \nframe=   52 fps= 15 q=47.0 size=       0KiB time=00:00:01.66 bitrate=   0.2kbits/s speed=0.474x elapsed=0:00:03.51    \nframe=   80 fps= 20 q=47.0 size=       0KiB time=00:00:02.60 bitrate=   0.1kbits/s speed=0.637x elapsed=0:00:04.08    \nframe=  125 fps= 27 q=45.0 size=     256KiB time=00:00:04.03 bitrate= 520.1kbits/s speed=0.869x elapsed=0:00:04.64    \n[mp4 @ 0000025cf0f214c0] Starting second pass: moving the moov atom to the beginning of the file\n[out#0/mp4 @ 0000025cf0f19a40] video:486KiB audio:0KiB subtitle:0KiB other streams:0KiB global headers:0KiB muxing overhead: 0.534644%\nframe=  150 fps= 30 q=-1.0 Lsize=     488KiB time=00:00:04.93 bitrate= 810.8kbits/s speed=0.997x elapsed=0:00:04.94    \n[libx264 @ 0000025cf32a75c0] frame I:1     Avg QP:47.78  size: 16269\n[libx264 @ 0000025cf32a75c0] frame P:38    Avg QP:46.67  size:  6062\n[libx264 @ 0000025cf32a75c0] frame B:111   Avg QP:49.25  size:  2252\n[libx264 @ 0000025cf32a75c0] consecutive B-frames:  1.3%  0.0%  0.0% 98.7%\n[libx264 @ 0000025cf32a75c0] mb I  I16..4: 41.7% 56.6%  1.7%\n[libx264 @ 0000025cf32a75c0] mb P  I16..4:  1.5%  1.6%  0.0%  P16..4: 16.6%  1.7%  4.0%  0.0%  0.0%    skip:74.4%\n[libx264 @ 0000025cf32a75c0] mb B  I16..4:  0.0%  0.0%  0.0%  B16..8: 14.7%  0.4%  0.0%  direct: 0.2%  skip:84.6%  L0:41.4% L1:58.2% BI: 0.4%\n[libx264 @ 0000025cf32a75c0] 8x8 transform intra:54.7% inter:86.5%\n[libx264 @ 0000025cf32a75c0] direct mvs  spatial:91.0% temporal:9.0%\n[libx264 @ 0000025cf32a75c0] coded y,uvDC,uvAC intra: 18.7% 11.1% 0.2% inter: 2.4% 0.1% 0.0%\n[libx264 @ 0000025cf32a75c0] i16 v,h,dc,p: 29% 46%  6% 20%\n[libx264 @ 0000025cf32a75c0] i8 v,h,dc,ddl,ddr,vr,hd,vl,hu:  5%  6% 29%  6% 14%  6% 18%  4% 13%\n[libx264 @ 0000025cf32a75c0] i4 v,h,dc,ddl,ddr,vr,hd,vl,hu:  6% 11% 12%  7% 13%  7% 15%  7% 22%\n[libx264 @ 0000025cf32a75c0] i8c dc,h,v,p: 97%  3%  0%  0%\n[libx264 @ 0000025cf32a75c0] Weighted P-Frames: Y:0.0% UV:0.0%\n[libx264 @ 0000025cf32a75c0] ref P L0: 55.9%  2.5% 20.7%  9.8% 11.2%\n[libx264 @ 0000025cf32a75c0] ref B L0: 74.4% 15.7%  6.9%  2.9%\n[libx264 @ 0000025cf32a75c0] ref B L1: 94.0%  6.0%\n[libx264 @ 0000025cf32a75c0] kb/s:794.52\n",
  "seconds": 5.282927513122559,
  "probe_out": {}
}